HIERARCHY
ROOT hip
{
	OFFSET 0.000000 0.000000 0.000000
	CHANNELS 6 Xposition Yposition Zposition Xrotation Zrotation Yrotation 
	JOINT abdomen
	{
		OFFSET 0.000000 3.422050 0.000000
		CHANNELS 3 Xrotation Zrotation Yrotation 
		JOINT chest
		{
			OFFSET 0.000000 8.486693 -0.6844110
			CHANNELS 3 Xrotation Zrotation Yrotation 
			JOINT neck
			{
				OFFSET 0.000000 10.26616 -0.2737640
				CHANNELS 3 Xrotation Zrotation Yrotation 
				JOINT head
				{
					OFFSET 0.000000 3.148285 0.000000
					CHANNELS 3 Xrotation Zrotation Yrotation 
					End Site
					{
						OFFSET 0.000000 3.148289 0.000000
					}
				}
			}
			JOINT lCollar
			{
				OFFSET 3.422053 6.707223 -0.8212930
				CHANNELS 3 Yrotation Zrotation Xrotation 
				JOINT lShldr
				{
					OFFSET 3.285171 0.000000 0.000000
					CHANNELS 3 Zrotation Yrotation Xrotation 
					JOINT lForeArm
					{
						OFFSET 10.12928 0.000000 0.000000
						CHANNELS 3 Yrotation Zrotation Xrotation 
						JOINT lHand
						{
							OFFSET 8.486692 0.000000 0.000000
							CHANNELS 3 Zrotation Yrotation Xrotation 
							End Site
							{
								OFFSET 4.106464 0.000000 0.000000
							}
						}
					}
				}
			}
			JOINT rCollar
			{
				OFFSET -3.558935 6.707223 -0.8212930
				CHANNELS 3 Yrotation Zrotation Xrotation 
				JOINT rShldr
				{
					OFFSET -3.148289 0.000000 0.000000
					CHANNELS 3 Zrotation Yrotation Xrotation 
					JOINT rForeArm
					{
						OFFSET -10.26616 0.000000 0.000000
						CHANNELS 3 Yrotation Zrotation Xrotation 
						JOINT rHand
						{
							OFFSET -8.349810 0.000000 0.000000
							CHANNELS 3 Zrotation Yrotation Xrotation 
							End Site
							{
								OFFSET -4.106464 0.000000 0.000000
							}
						}
					}
				}
			}
		}
	}
	JOINT lThigh
	{
		OFFSET 5.338403 -1.642589 1.368821
		CHANNELS 3 Xrotation Zrotation Yrotation 
		JOINT lShin
		{
			OFFSET -2.053232 -20.12167 0.000000
			CHANNELS 3 Xrotation Zrotation Yrotation 
			JOINT lFoot
			{
				OFFSET 0.000000 -19.30038 -1.231939
				CHANNELS 3 Xrotation Yrotation Zrotation 
				End Site
				{
					OFFSET 0.000000 -2.463878 4.653993
				}
			}
		}
	}
	JOINT rThigh
	{
		OFFSET -5.338403 -1.642589 1.368821
		CHANNELS 3 Xrotation Zrotation Yrotation 
		JOINT rShin
		{
			OFFSET 2.053232 -20.12167 0.000000
			CHANNELS 3 Xrotation Zrotation Yrotation 
			JOINT rFoot
			{
				OFFSET 0.000000 -19.30038 -1.231939
				CHANNELS 3 Xrotation Yrotation Zrotation 
				End Site
				{
					OFFSET 0.000000 -2.463878 4.653993
				}
			}
		}
	}
}
MOTION
Frames:	12
Frame Time:	0.1000000
0.000000 43.52852 0.000000 0.000000 0.000000 0.000000 0.000000 0.000000 0.000000 0.000000 0.000000 0.000000 0.000000 0.000000 0.000000 0.000000 0.000000 0.000000 0.000000 0.000000 0.000000 0.000000 0.000000 0.000000 0.000000 0.000000 0.000000 0.000000 0.000000 0.000000 0.000000 0.000000 0.000000 0.000000 0.000000 0.000000 0.000000 0.000000 0.000000 0.000000 0.000000 0.000000 0.000000 0.000000 0.000000 0.000000 0.000000 0.000000 0.000000 0.000000 0.000000 0.000000 0.000000 0.000000 0.000000 0.000000 0.000000 0.000000 0.000000 0.000000 
0.000000 43.15576 0.1485381 1.188305 0.000000 0.000000 0.6895489 0.0170259 0.1362072 0.1702590 0.000000 0.05959065 -0.06398358 0.000000 0.000000 -0.06398358 0.000000 0.000000 -0.04450795 -22.01661 -0.08512949 -52.20766 -0.5959064 -0.01938193 -12.00000 0.000000 -0.05537693 -8.548814 -0.05537693 -0.1522865 -0.03849586 24.00356 -0.004277317 56.37358 0.5560513 -0.06356962 16.00000 0.000000 0.08126903 5.829741 -0.1106683 -0.08512949 -2.557608 0.000000 0.000000 3.388609 0.000000 0.000000 -1.959743 0.000000 0.000000 -3.448837 0.000000 0.000000 12.07291 0.000000 0.000000 -1.019002 0.000000 0.000000 
0.000000 42.11131 0.5647343 4.517874 0.000000 0.000000 2.734715 0.06752383 0.5401906 0.6752383 0.000000 0.2363334 -0.2553885 0.000000 0.000000 -0.2553885 0.000000 0.000000 -0.09430724 -21.82385 -0.1803796 -51.94046 -1.262657 -0.04106807 -11.99096 0.000000 -0.1173374 -7.957527 -0.1173374 -0.3226777 -0.08022737 23.89566 -0.008914151 56.51778 1.158840 -0.1324824 15.91028 0.000000 0.1693689 5.581600 -0.2344935 -0.1803796 -9.723896 0.000000 0.000000 12.88332 0.000000 0.000000 -7.450844 0.000000 0.000000 -13.11230 0.000000 0.000000 41.21990 0.000000 0.000000 -3.874194 0.000000 0.000000 
0.000000 40.60203 1.166161 9.329285 0.000000 0.000000 6.065857 0.1497743 1.198194 1.497743 0.000000 0.5242099 -0.5725818 0.000000 0.000000 -0.5725818 0.000000 0.000000 -0.2417915 -21.25298 -0.4624698 -51.14912 -3.237289 -0.1052932 -11.96417 0.000000 -0.3008377 -6.206388 -0.3008377 -0.8273034 -0.2046446 23.57398 -0.02273828 56.94770 2.955977 -0.3379371 15.64277 0.000000 0.4320274 4.846712 -0.6012108 -0.4624698 -20.07957 0.000000 0.000000 26.60369 0.000000 0.000000 -15.38579 0.000000 0.000000 -27.07654 0.000000 0.000000 70.36801 0.000000 0.000000 -8.000102 0.000000 0.000000 
0.000000 39.22651 1.714286 14.66963 0.000000 0.000000 10.56954 0.2609764 2.087811 2.609764 0.000000 0.9134174 -1.012857 0.000000 0.000000 -1.012857 0.000000 0.000000 -0.4812932 -20.32592 -0.9205601 -49.86406 -6.443921 -0.2095893 -11.92067 0.000000 -0.5988265 -3.362688 -0.5988265 -1.646773 -0.4094299 23.04449 -0.04549221 57.65532 5.913988 -0.6761066 15.20248 0.000000 0.8643520 3.653317 -1.196728 -0.9205601 -31.57369 0.000000 0.000000 41.83241 0.000000 0.000000 -24.19305 0.000000 0.000000 -42.57592 0.000000 0.000000 82.44363 0.000000 0.000000 -12.57959 0.000000 0.000000 
0.000000 38.15100 2.142857 19.48126 0.000000 0.000000 16.09242 0.3973436 3.178749 3.973436 0.000000 1.390703 -1.572460 0.000000 0.000000 -1.572460 0.000000 0.000000 -0.8036091 -19.07831 -1.537048 -48.13465 -10.75933 -0.3499485 -11.86213 0.000000 -0.9998529 0.4642974 -0.9998529 -2.749595 -0.6907689 22.31707 -0.0767521 58.62747 9.977773 -1.140692 14.59759 0.000000 1.458290 2.047275 -1.998162 -1.537048 -41.92984 0.000000 0.000000 55.55339 0.000000 0.000000 -32.12834 0.000000 0.000000 -56.54078 0.000000 0.000000 79.19270 0.000000 0.000000 -16.70568 0.000000 0.000000 
0.000000 37.07550 2.571429 22.81121 0.000000 0.000000 22.44641 0.5542324 4.433859 5.542324 0.000000 1.939813 -2.246614 0.000000 0.000000 -2.246614 0.000000 0.000000 -1.196353 -17.55809 -2.288242 -46.02735 -16.01769 -0.5209773 -11.79080 0.000000 -1.488507 5.127508 -1.488507 -4.093392 -1.043421 21.40527 -0.1159357 59.84604 15.07164 -1.723039 13.83937 0.000000 2.202778 0.09029904 -2.974715 -2.288242 -49.09695 0.000000 0.000000 65.04921 0.000000 0.000000 -37.62008 0.000000 0.000000 -66.20537 0.000000 0.000000 72.69065 0.000000 0.000000 -19.56120 0.000000 0.000000 
0.000000 36.00000 3.000000 24.00000 0.000000 0.000000 29.41516 0.7263003 5.810402 7.263003 0.000000 2.542051 -3.029569 0.000000 0.000000 -3.029569 0.000000 0.000000 -1.644434 -15.82367 -3.145277 -43.62314 -22.01694 -0.7161035 -11.70943 0.000000 -2.046010 10.44775 -2.046010 -5.626526 -1.460817 20.32607 -0.1623130 61.28833 21.10069 -2.412301 12.94196 0.000000 3.083948 -2.142408 -4.088861 -3.145277 -51.65560 0.000000 0.000000 68.43919 0.000000 0.000000 -39.58062 0.000000 0.000000 -69.65560 0.000000 0.000000 69.43919 0.000000 0.000000 -20.58062 0.000000 0.000000 
0.000000 34.70000 2.949104 23.90452 -0.4404656 -0.4159953 36.76137 0.9076882 7.261506 9.076882 0.000000 3.176909 -3.914646 0.000000 0.000000 -3.914646 0.000000 0.000000 -2.130633 -13.94171 -4.075220 -41.01441 -28.52654 -0.9278290 -11.62112 0.000000 -2.650940 16.22058 -2.650940 -7.290083 -1.935183 19.09957 -0.2150203 62.92747 27.95265 -3.195639 11.92205 0.000000 4.085387 -4.565050 -5.297786 -4.075220 -51.56745 0.6716322 -0.5138765 70.00917 0.000000 0.000000 -39.15891 0.000000 0.000000 -69.76321 0.3915250 -0.3670546 70.20165 0.000000 0.000000 -21.30052 0.000000 0.000000 
0.000000 33.40000 2.898208 23.62741 -1.718749 -1.623263 44.23489 1.092219 8.737756 10.92220 0.000000 3.822768 -4.894293 0.000000 0.000000 -4.894293 0.000000 0.000000 -2.636266 -11.98452 -5.042335 -38.30140 -35.29634 -1.148018 -11.52929 0.000000 -3.280051 22.22417 -3.280051 -9.020137 -2.457682 17.74861 -0.2730758 64.73294 35.49986 -4.058461 10.79866 0.000000 5.188440 -7.084531 -6.555036 -5.042335 -51.31163 2.620789 -2.005207 74.56543 0.000000 0.000000 -37.93506 0.000000 0.000000 -70.07552 1.527777 -1.432291 72.41439 0.000000 0.000000 -23.38976 0.000000 0.000000 
0.000000 32.10000 2.847312 23.19581 -3.709730 -3.503634 51.58123 1.273611 10.18888 12.73611 0.000000 4.457637 -5.960154 0.000000 0.000000 -5.960154 0.000000 0.000000 -3.141904 -10.02732 -6.009459 -35.58836 -42.06621 -1.368208 -11.43746 0.000000 -3.909167 28.22781 -3.909167 -10.75021 -3.018582 16.29837 -0.3353980 66.67110 43.60175 -4.984696 9.592708 0.000000 6.372563 -9.604035 -7.812297 -6.009459 -50.91319 5.656683 -4.328019 81.66199 0.000000 0.000000 -36.02887 0.000000 0.000000 -70.56196 3.297538 -3.091442 75.86082 0.000000 0.000000 -26.64384 0.000000 0.000000 
0.000000 30.80000 2.796416 22.65195 -6.218530 -5.873056 58.55023 1.445685 11.56548 14.45685 0.000000 5.059896 -7.103135 0.000000 0.000000 -7.103135 0.000000 0.000000 -3.628117 -8.145305 -6.939428 -32.97955 -48.57600 -1.579940 -11.34915 0.000000 -4.514114 34.00080 -4.514114 -12.41381 -3.607435 14.77586 -0.4008261 68.70584 52.10740 -5.957090 8.326653 0.000000 7.615696 -12.02675 -9.021256 -6.939428 -50.41111 9.482159 -7.254951 90.60425 0.000000 0.000000 -33.62690 0.000000 0.000000 -71.17490 5.527582 -5.182108 80.20361 0.000000 0.000000 -30.74425 0.000000 0.000000 
